<?xml version="1.0" standalone="no"?>
<!DOCTYPE svg PUBLIC "-//W3C//DTD SVG 20010904//EN"
 "http://www.w3.org/TR/2001/REC-SVG-20010904/DTD/svg10.dtd">
<svg version="1.0" xmlns="http://www.w3.org/2000/svg"
 width="646.000000pt" height="593.000000pt" viewBox="0 0 646.000000 593.000000"
 preserveAspectRatio="xMidYMid meet">

<g transform="translate(0.000000,593.000000) scale(0.100000,-0.100000)"
fill="#000000" stroke="none">
<path d="M3023 5825 c-570 -52 -1120 -282 -1553 -650 -120 -102 -321 -313
-413 -433 -289 -378 -467 -798 -548 -1292 -30 -181 -33 -601 -6 -780 90 -592
325 -1090 719 -1520 437 -477 1006 -775 1678 -877 162 -24 589 -24 745 1 523
82 935 256 1340 565 125 96 368 336 469 463 285 362 478 783 560 1223 38 207
41 244 41 520 0 284 -3 316 -46 545 -125 653 -518 1276 -1064 1687 -239 179
-561 346 -835 431 -188 58 -388 97 -600 117 -192 17 -291 17 -487 0z m328
-851 c143 -27 239 -94 239 -167 0 -80 -66 -138 -189 -167 -108 -25 -261 24
-261 84 0 37 24 50 73 40 23 -4 76 -8 117 -8 60 -1 82 3 109 20 l34 22 -27 18
c-67 43 -213 57 -321 29 -124 -32 -169 -107 -104 -173 42 -43 70 -57 164 -83
62 -17 97 -20 179 -17 120 5 194 30 262 89 48 41 63 46 82 27 33 -33 -6 -216
-74 -350 -59 -115 -161 -222 -227 -235 -15 -3 -29 -8 -31 -12 -5 -8 14 -244
20 -250 2 -2 20 9 40 24 45 34 138 80 224 111 74 26 72 27 84 -61 14 -99 -38
-238 -106 -287 -76 -53 -101 -62 -179 -63 l-77 0 -11 -65 c-11 -70 -27 -90
-72 -90 -50 0 -58 27 -52 164 l6 121 -84 0 c-75 0 -90 3 -139 31 -76 43 -134
116 -160 204 -12 39 -18 75 -15 80 14 23 306 4 378 -25 14 -6 17 -1 17 28 0
55 -16 86 -47 93 -54 13 -105 46 -161 103 -77 77 -103 128 -147 291 -17 65
-31 226 -23 264 25 112 127 189 286 216 73 12 103 11 193 -6z m-2051 -2244 c0
-17 -7 -20 -42 -20 -64 0 -69 -7 -66 -81 l3 -64 43 -3 c33 -3 42 -7 42 -22 0
-15 -9 -19 -42 -22 l-43 -3 -3 -82 c-3 -81 -3 -83 -27 -83 l-25 0 0 193 c0
107 3 197 7 200 3 4 39 7 80 7 66 0 73 -2 73 -20z m170 -160 l5 -175 53 -3
c44 -3 52 -6 52 -23 0 -17 -7 -19 -80 -19 l-80 0 0 201 0 200 23 -3 c22 -3 22
-6 27 -178z m381 154 c23 -25 24 -31 24 -174 0 -143 -1 -149 -24 -174 -34 -36
-101 -37 -136 -1 -24 23 -25 29 -25 165 0 180 13 209 96 210 31 0 46 -6 65
-26z m184 17 c5 -8 35 -218 35 -245 0 -6 3 -6 9 -1 5 6 15 53 21 105 16 125
22 144 47 148 22 3 27 -15 48 -180 3 -26 10 -50 14 -53 9 -5 14 14 32 143 8
55 16 85 26 89 25 10 31 -10 21 -77 -5 -36 -17 -121 -27 -190 l-17 -125 -34 0
-35 0 -10 82 c-16 125 -24 123 -45 -9 l-13 -78 -33 0 c-19 0 -34 2 -34 5 0 3
-9 69 -19 148 -36 265 -36 247 -13 247 12 0 23 -4 27 -9z m550 -1 c13 -22 -17
-40 -66 -40 l-49 0 0 -59 0 -60 43 -3 c35 -2 43 -7 45 -25 3 -21 -1 -23 -42
-23 -25 0 -48 -5 -51 -11 -4 -5 -4 -37 0 -70 l7 -59 54 0 c47 0 54 -2 54 -20
0 -18 -7 -20 -85 -20 l-85 0 4 198 c2 108 5 198 5 200 3 8 161 0 166 -8z m269
-11 c23 -18 26 -27 26 -88 0 -45 -5 -74 -16 -89 -14 -21 -14 -25 -1 -40 9 -11
16 -44 19 -90 l4 -73 -26 3 c-24 3 -25 7 -28 71 -3 59 -6 69 -27 83 -44 29
-55 14 -55 -76 0 -79 0 -80 -25 -80 l-25 0 0 193 c0 107 3 197 7 200 3 4 32 7
63 7 43 0 64 -5 84 -21z m670 -1 c15 -13 29 -38 32 -55 6 -30 4 -33 -18 -33
-20 0 -27 6 -31 30 -6 25 -11 30 -36 30 -35 0 -56 -29 -47 -64 3 -12 32 -47
65 -78 62 -60 78 -94 66 -148 -4 -16 -16 -37 -28 -45 -25 -17 -89 -20 -117 -5
-25 13 -48 86 -32 102 17 17 42 1 42 -25 0 -31 22 -50 52 -45 19 2 24 10 26
44 3 38 -1 44 -53 95 -63 61 -82 107 -64 158 20 58 97 79 143 39z m206 -73 l5
-90 40 0 40 0 5 90 c5 82 7 90 25 90 19 0 20 -8 23 -197 l2 -198 -24 0 c-25 0
-25 2 -28 83 l-3 82 -40 0 -40 0 -3 -82 c-3 -81 -3 -83 -27 -83 l-25 0 0 193
c0 107 3 197 7 201 4 4 14 5 23 4 12 -3 16 -23 20 -93z m399 81 c42 -22 51
-54 51 -192 0 -171 -13 -194 -105 -194 -35 0 -48 5 -64 26 -19 24 -21 40 -21
168 0 114 3 146 16 164 28 41 77 52 123 28z m307 -5 c28 -17 33 -26 38 -78 12
-103 -16 -152 -86 -153 l-38 0 0 -75 c0 -73 -1 -75 -25 -75 l-25 0 0 194 c0
146 3 196 13 199 29 12 94 6 123 -12z m280 9 c48 -17 58 -43 62 -170 5 -151
-6 -196 -56 -217 -28 -12 -44 -13 -72 -4 -57 17 -65 42 -64 203 1 130 2 140
24 163 12 13 32 26 44 28 11 2 24 5 27 6 3 0 19 -4 35 -9z m319 -6 c22 -9 45
-56 45 -93 0 -33 -19 -81 -31 -81 -5 0 1 -16 13 -35 25 -43 21 -124 -7 -155
-24 -27 -76 -35 -112 -18 -34 16 -60 82 -42 105 17 20 30 12 43 -27 20 -64 86
-49 86 19 0 44 -22 78 -53 83 -32 4 -27 30 7 39 35 10 46 24 46 65 0 71 -63
89 -85 24 -7 -19 -17 -35 -23 -34 -32 3 -33 5 -27 37 11 49 42 77 86 77 21 0
45 -3 54 -6z m-1781 -390 c43 -16 3 -24 -124 -24 -125 0 -166 8 -127 23 18 8
232 8 251 1z"/>
<path d="M1746 2684 c-3 -9 -6 -73 -6 -144 0 -101 3 -130 15 -140 21 -17 61
-4 69 22 10 38 7 238 -4 259 -13 24 -65 26 -74 3z"/>
<path d="M2752 2633 c3 -65 4 -68 29 -71 37 -4 51 18 47 80 l-3 53 -38 3 -38
3 3 -68z"/>
<path d="M4052 2688 c-17 -17 -17 -269 0 -286 18 -18 56 -14 68 7 5 11 10 72
10 136 0 64 -5 125 -10 136 -12 21 -50 25 -68 7z"/>
<path d="M4352 2623 c3 -69 5 -78 23 -81 33 -4 48 14 52 65 7 65 -8 93 -48 93
l-30 0 3 -77z"/>
<path d="M4652 2688 c-14 -14 -17 -265 -3 -286 5 -8 21 -12 37 -10 l29 3 3
139 c3 142 -3 166 -37 166 -9 0 -22 -5 -29 -12z"/>
</g>
</svg>
